P3
16 16
255
  0 109 183    0 109 183    0 109 183    0 109 183    0 109 183
  0 109 183    0 109 183    0 109 183    0 109 183    0 109 183
  0 109 183    0 109 183    0 109 183    0 109 183    0 109 183
  0 109 183
  0 109 183  255 255 255  255 255 255  255 255 255  255 255 255
255 255 255  255 255 255  255 255 255  255 255 255  255 255 255
255 255 255  255 255 255  255 255 255  255 255 255  255 255 255
  0 109 183
  0 109 183  255 255 255  255 255 255  255 255 255  255 255 255
255 255 255  255 255 255  255 255 255  255 255 255  255 255 255
255 255 255  255 255 255  255 255 255  255 255 255  255 255 255
  0 109 183
  0 109 183  204 204 204  204 204 204  204 204 204  204 204 204
204 204 204  204 204 204  204 204 204  204 204 204  204 204 204
204 204 204  204 204 204  204 204 204  204 204 204  204 204 204
  0 109 183
  0 109 183  204 204 204  153 153 153    0   0   0    0   0   0
  0   0   0  153 153 153    0   0   0    0   0   0  153 153 153
153 153 153    0   0   0  153 153 153    0   0   0  204 204 204
  0 109 183
  0 109 183  204 204 204  153 153 153    0   0   0  255 255 255
255 255 255  255 255 255    0   0   0  255 255 255    0   0   0
255 255 255    0   0   0    0   0   0    0   0   0  204 204 204
  0 109 183
  0 109 183  204 204 204  153 153 153    0   0   0    0   0   0
  0   0   0  255 255 255    0   0   0    0   0   0  255 255 255
255 255 255    0   0   0  255 255 255    0   0   0  204 204 204
  0 109 183
  0 109 183  204 204 204  153 153 153    0   0   0  255 255 255
255 255 255  255 255 255    0   0   0  255 255 255    0   0   0
255 255 255    0   0   0  255 255 255    0   0   0  204 204 204
  0 109 183
  0 109 183  204 204 204  204 204 204  204 204 204  204 204 204
204 204 204  204 204 204  204 204 204  204 204 204  204 204 204
204 204 204  204 204 204  204 204 204  204 204 204  204 204 204
  0 109 183
  0 109 183  204 204 204  204 204 204  204 204 204  204 204 204
204 204 204  255 255 255  255 255 255  255 255 255  255 255 255
255 255 255  255 255 255  255 255 255  204 204 204  204 204 204
  0 109 183
  0 109 183  204 204 204  204 204 204  204 204 204  204 204 204
255 255 255  204 204 204    0   0   0  204 204 204  204 204 204
  0   0   0  204 204 204    0   0   0  153 153 153  204 204 204
  0 109 183
  0 109 183  204 204 204  204 204 204  204 204 204  204 204 204
255 255 255    0   0   0  204 204 204    0   0   0  204 204 204
  0   0   0    0   0   0  204 204 204  153 153 153  204 204 204
  0 109 183
  0 109 183  204 204 204  204 204 204  204 204 204  204 204 204
255 255 255    0   0   0  204 204 204    0   0   0  204 204 204
  0   0   0  204 204 204    0   0   0  153 153 153  204 204 204
  0 109 183
  0 109 183  204 204 204  204 204 204  204 204 204  204 204 204
255 255 255  204 204 204    0   0   0  204 204 204  204 204 204
  0   0   0  204 204 204    0   0   0  153 153 153  204 204 204
  0 109 183
  0 109 183  204 204 204  204 204 204  204 204 204  204 204 204
204 204 204  153 153 153  153 153 153  153 153 153  153 153 153
153 153 153  153 153 153  153 153 153  204 204 204  204 204 204
  0 109 183
  0 109 183    0 109 183    0 109 183    0 109 183    0 109 183
  0 109 183    0 109 183    0 109 183    0 109 183    0 109 183
  0 109 183    0 109 183    0 109 183    0 109 183    0 109 183
  0 109 183
